REM DIRINDEX 1\2,1\3
REM DIRNAME folder01,folder02,folder03
TITLE ""
FILE "Disk2Track14.mp3" MP3
  TRACK 01 AUDIO
    TITLE "2:cjc052_0635"
    INDEX 01 00:00:00
  TRACK 02 AUDIO
    TITLE "2:cjc052_0636"
    INDEX 01 00:11:48
  TRACK 03 AUDIO
    TITLE "0:"
    INDEX 01 00:26:15
